<?xml version='1.0' encoding='UTF-8'?>
<svg width="81mm" height="81mm" version="1.1" viewBox="0 0 81 81" fill_color="#123f39" back_color="#fffaf0" xmlns="http://www.w3.org/2000/svg"><path d="M7.2,7.2H9V9H7.2zM9,7.2H10.8V9H9zM10.8,7.2H12.6V9H10.8zM12.6,7.2H14.4V9H12.6zM14.4,7.2H16.2V9H14.4zM16.2,7.2H18V9H16.2zM18,7.2H19.8V9H18zM23.4,7.2H25.2V9H23.4zM32.4,7.2H34.2V9H32.4zM36,7.2H37.8V9H36zM39.6,7.2H41.4V9H39.6zM45,7.2H46.8V9H45zM61.2,7.2H63V9H61.2zM63,7.2H64.8V9H63zM64.8,7.2H66.6V9H64.8zM66.6,7.2H68.4V9H66.6zM68.4,7.2H70.2V9H68.4zM70.2,7.2H72V9H70.2zM72,7.2H73.8V9H72zM7.2,9H9V10.8H7.2zM18,9H19.8V10.8H18zM21.6,9H23.4V10.8H21.6zM23.4,9H25.2V10.8H23.4zM27,9H28.8V10.8H27zM28.8,9H30.6V10.8H28.8zM36,9H37.8V10.8H36zM37.8,9H39.6V10.8H37.8zM39.6,9H41.4V10.8H39.6zM41.4,9H43.2V10.8H41.4zM43.2,9H45V10.8H43.2zM45,9H46.8V10.8H45zM48.6,9H50.4V10.8H48.6zM50.4,9H52.2V10.8H50.4zM57.6,9H59.4V10.8H57.6zM61.2,9H63V10.8H61.2zM72,9H73.8V10.8H72zM7.2,10.8H9V12.6H7.2zM10.8,10.8H12.6V12.6H10.8zM12.6,10.8H14.4V12.6H12.6zM14.4,10.8H16.2V12.6H14.4zM18,10.8H19.8V12.6H18zM21.6,10.8H23.4V12.6H21.6zM23.4,10.8H25.2V12.6H23.4zM30.6,10.8H32.4V12.6H30.6zM36,10.8H37.8V12.6H36zM37.8,10.8H39.6V12.6H37.8zM43.2,10.8H45V12.6H43.2zM52.2,10.8H54V12.6H52.2zM54,10.8H55.8V12.6H54zM55.8,10.8H57.6V12.6H55.8zM57.6,10.8H59.4V12.6H57.6zM61.2,10.8H63V12.6H61.2zM64.8,10.8H66.6V12.6H64.8zM66.6,10.8H68.4V12.6H66.6zM68.4,10.8H70.2V12.6H68.4zM72,10.8H73.8V12.6H72zM7.2,12.6H9V14.4H7.2zM10.8,12.6H12.6V14.4H10.8zM12.6,12.6H14.4V14.4H12.6zM14.4,12.6H16.2V14.4H14.4zM18,12.6H19.8V14.4H18zM21.6,12.6H23.4V14.4H21.6zM27,12.6H28.8V14.4H27zM28.8,12.6H30.6V14.4H28.8zM34.2,12.6H36V14.4H34.2zM37.8,12.6H39.6V14.4H37.8zM39.6,12.6H41.4V14.4H39.6zM41.4,12.6H43.2V14.4H41.4zM45,12.6H46.8V14.4H45zM46.8,12.6H48.6V14.4H46.8zM48.6,12.6H50.4V14.4H48.6zM52.2,12.6H54V14.4H52.2zM55.8,12.6H57.6V14.4H55.8zM61.2,12.6H63V14.4H61.2zM64.8,12.6H66.6V14.4H64.8zM66.6,12.6H68.4V14.4H66.6zM68.4,12.6H70.2V14.4H68.4zM72,12.6H73.8V14.4H72zM7.2,14.4H9V16.2H7.2zM10.8,14.4H12.6V16.2H10.8zM12.6,14.4H14.4V16.2H12.6zM14.4,14.4H16.2V16.2H14.4zM18,14.4H19.8V16.2H18zM21.6,14.4H23.4V16.2H21.6zM25.2,14.4H27V16.2H25.2zM28.8,14.4H30.6V16.2H28.8zM32.4,14.4H34.2V16.2H32.4zM34.2,14.4H36V16.2H34.2zM37.8,14.4H39.6V16.2H37.8zM41.4,14.4H43.2V16.2H41.4zM50.4,14.4H52.2V16.2H50.4zM52.2,14.4H54V16.2H52.2zM54,14.4H55.8V16.2H54zM57.6,14.4H59.4V16.2H57.6zM61.2,14.4H63V16.2H61.2zM64.8,14.4H66.6V16.2H64.8zM66.6,14.4H68.4V16.2H66.6zM68.4,14.4H70.2V16.2H68.4zM72,14.4H73.8V16.2H72zM7.2,16.2H9V18H7.2zM18,16.2H19.8V18H18zM21.6,16.2H23.4V18H21.6zM23.4,16.2H25.2V18H23.4zM25.2,16.2H27V18H25.2zM27,16.2H28.8V18H27zM30.6,16.2H32.4V18H30.6zM32.4,16.2H34.2V18H32.4zM37.8,16.2H39.6V18H37.8zM39.6,16.2H41.4V18H39.6zM41.4,16.2H43.2V18H41.4zM43.2,16.2H45V18H43.2zM45,16.2H46.8V18H45zM46.8,16.2H48.6V18H46.8zM50.4,16.2H52.2V18H50.4zM54,16.2H55.8V18H54zM57.6,16.2H59.4V18H57.6zM61.2,16.2H63V18H61.2zM72,16.2H73.8V18H72zM7.2,18H9V19.8H7.2zM9,18H10.8V19.8H9zM10.8,18H12.6V19.8H10.8zM12.6,18H14.4V19.8H12.6zM14.4,18H16.2V19.8H14.4zM16.2,18H18V19.8H16.2zM18,18H19.8V19.8H18zM21.6,18H23.4V19.8H21.6zM25.2,18H27V19.8H25.2zM28.8,18H30.6V19.8H28.8zM32.4,18H34.2V19.8H32.4zM36,18H37.8V19.8H36zM39.6,18H41.4V19.8H39.6zM43.2,18H45V19.8H43.2zM46.8,18H48.6V19.8H46.8zM50.4,18H52.2V19.8H50.4zM54,18H55.8V19.8H54zM57.6,18H59.4V19.8H57.6zM61.2,18H63V19.8H61.2zM63,18H64.8V19.8H63zM64.8,18H66.6V19.8H64.8zM66.6,18H68.4V19.8H66.6zM68.4,18H70.2V19.8H68.4zM70.2,18H72V19.8H70.2zM72,18H73.8V19.8H72zM23.4,19.8H25.2V21.6H23.4zM28.8,19.8H30.6V21.6H28.8zM32.4,19.8H34.2V21.6H32.4zM39.6,19.8H41.4V21.6H39.6zM43.2,19.8H45V21.6H43.2zM50.4,19.8H52.2V21.6H50.4zM55.8,19.8H57.6V21.6H55.8zM57.6,19.8H59.4V21.6H57.6zM10.8,21.6H12.6V23.4H10.8zM16.2,21.6H18V23.4H16.2zM18,21.6H19.8V23.4H18zM19.8,21.6H21.6V23.4H19.8zM21.6,21.6H23.4V23.4H21.6zM23.4,21.6H25.2V23.4H23.4zM25.2,21.6H27V23.4H25.2zM27,21.6H28.8V23.4H27zM28.8,21.6H30.6V23.4H28.8zM30.6,21.6H32.4V23.4H30.6zM32.4,21.6H34.2V23.4H32.4zM34.2,21.6H36V23.4H34.2zM37.8,21.6H39.6V23.4H37.8zM39.6,21.6H41.4V23.4H39.6zM41.4,21.6H43.2V23.4H41.4zM45,21.6H46.8V23.4H45zM46.8,21.6H48.6V23.4H46.8zM59.4,21.6H61.2V23.4H59.4zM63,21.6H64.8V23.4H63zM64.8,21.6H66.6V23.4H64.8zM66.6,21.6H68.4V23.4H66.6zM68.4,21.6H70.2V23.4H68.4zM70.2,21.6H72V23.4H70.2zM9,23.4H10.8V25.2H9zM10.8,23.4H12.6V25.2H10.8zM12.6,23.4H14.4V25.2H12.6zM19.8,23.4H21.6V25.2H19.8zM28.8,23.4H30.6V25.2H28.8zM32.4,23.4H34.2V25.2H32.4zM34.2,23.4H36V25.2H34.2zM39.6,23.4H41.4V25.2H39.6zM43.2,23.4H45V25.2H43.2zM46.8,23.4H48.6V25.2H46.8zM50.4,23.4H52.2V25.2H50.4zM52.2,23.4H54V25.2H52.2zM55.8,23.4H57.6V25.2H55.8zM57.6,23.4H59.4V25.2H57.6zM61.2,23.4H63V25.2H61.2zM66.6,23.4H68.4V25.2H66.6zM72,23.4H73.8V25.2H72zM9,25.2H10.8V27H9zM12.6,25.2H14.4V27H12.6zM16.2,25.2H18V27H16.2zM18,25.2H19.8V27H18zM27,25.2H28.8V27H27zM28.8,25.2H30.6V27H28.8zM34.2,25.2H36V27H34.2zM41.4,25.2H43.2V27H41.4zM55.8,25.2H57.6V27H55.8zM59.4,25.2H61.2V27H59.4zM61.2,25.2H63V27H61.2zM63,25.2H64.8V27H63zM64.8,25.2H66.6V27H64.8zM66.6,25.2H68.4V27H66.6zM68.4,25.2H70.2V27H68.4zM72,25.2H73.8V27H72zM10.8,27H12.6V28.8H10.8zM14.4,27H16.2V28.8H14.4zM16.2,27H18V28.8H16.2zM21.6,27H23.4V28.8H21.6zM23.4,27H25.2V28.8H23.4zM25.2,27H27V28.8H25.2zM39.6,27H41.4V28.8H39.6zM43.2,27H45V28.8H43.2zM50.4,27H52.2V28.8H50.4zM54,27H55.8V28.8H54zM63,27H64.8V28.8H63zM66.6,27H68.4V28.8H66.6zM72,27H73.8V28.8H72zM7.2,28.8H9V30.6H7.2zM12.6,28.8H14.4V30.6H12.6zM14.4,28.8H16.2V30.6H14.4zM18,28.8H19.8V30.6H18zM23.4,28.8H25.2V30.6H23.4zM28.8,28.8H30.6V30.6H28.8zM32.4,28.8H34.2V30.6H32.4zM36,28.8H37.8V30.6H36zM39.6,28.8H41.4V30.6H39.6zM45,28.8H46.8V30.6H45zM48.6,28.8H50.4V30.6H48.6zM61.2,28.8H63V30.6H61.2zM66.6,28.8H68.4V30.6H66.6zM9,30.6H10.8V32.4H9zM16.2,30.6H18V32.4H16.2zM21.6,30.6H23.4V32.4H21.6zM25.2,30.6H27V32.4H25.2zM27,30.6H28.8V32.4H27zM28.8,30.6H30.6V32.4H28.8zM30.6,30.6H32.4V32.4H30.6zM36,30.6H37.8V32.4H36zM41.4,30.6H43.2V32.4H41.4zM43.2,30.6H45V32.4H43.2zM45,30.6H46.8V32.4H45zM46.8,30.6H48.6V32.4H46.8zM50.4,30.6H52.2V32.4H50.4zM54,30.6H55.8V32.4H54zM55.8,30.6H57.6V32.4H55.8zM57.6,30.6H59.4V32.4H57.6zM59.4,30.6H61.2V32.4H59.4zM61.2,30.6H63V32.4H61.2zM63,30.6H64.8V32.4H63zM68.4,30.6H70.2V32.4H68.4zM70.2,30.6H72V32.4H70.2zM72,30.6H73.8V32.4H72zM9,32.4H10.8V34.2H9zM10.8,32.4H12.6V34.2H10.8zM12.6,32.4H14.4V34.2H12.6zM14.4,32.4H16.2V34.2H14.4zM18,32.4H19.8V34.2H18zM21.6,32.4H23.4V34.2H21.6zM23.4,32.4H25.2V34.2H23.4zM25.2,32.4H27V34.2H25.2zM27,32.4H28.8V34.2H27zM36,32.4H37.8V34.2H36zM37.8,32.4H39.6V34.2H37.8zM39.6,32.4H41.4V34.2H39.6zM46.8,32.4H48.6V34.2H46.8zM48.6,32.4H50.4V34.2H48.6zM50.4,32.4H52.2V34.2H50.4zM52.2,32.4H54V34.2H52.2zM55.8,32.4H57.6V34.2H55.8zM61.2,32.4H63V34.2H61.2zM64.8,32.4H66.6V34.2H64.8zM66.6,32.4H68.4V34.2H66.6zM68.4,32.4H70.2V34.2H68.4zM72,32.4H73.8V34.2H72zM7.2,34.2H9V36H7.2zM9,34.2H10.8V36H9zM10.8,34.2H12.6V36H10.8zM16.2,34.2H18V36H16.2zM27,34.2H28.8V36H27zM36,34.2H37.8V36H36zM37.8,34.2H39.6V36H37.8zM41.4,34.2H43.2V36H41.4zM48.6,34.2H50.4V36H48.6zM57.6,34.2H59.4V36H57.6zM63,34.2H64.8V36H63zM66.6,34.2H68.4V36H66.6zM70.2,34.2H72V36H70.2zM7.2,36H9V37.8H7.2zM9,36H10.8V37.8H9zM12.6,36H14.4V37.8H12.6zM18,36H19.8V37.8H18zM21.6,36H23.4V37.8H21.6zM28.8,36H30.6V37.8H28.8zM30.6,36H32.4V37.8H30.6zM36,36H37.8V37.8H36zM45,36H46.8V37.8H45zM46.8,36H48.6V37.8H46.8zM48.6,36H50.4V37.8H48.6zM55.8,36H57.6V37.8H55.8zM57.6,36H59.4V37.8H57.6zM61.2,36H63V37.8H61.2zM63,36H64.8V37.8H63zM72,36H73.8V37.8H72zM12.6,37.8H14.4V39.6H12.6zM19.8,37.8H21.6V39.6H19.8zM21.6,37.8H23.4V39.6H21.6zM23.4,37.8H25.2V39.6H23.4zM28.8,37.8H30.6V39.6H28.8zM43.2,37.8H45V39.6H43.2zM45,37.8H46.8V39.6H45zM46.8,37.8H48.6V39.6H46.8zM50.4,37.8H52.2V39.6H50.4zM52.2,37.8H54V39.6H52.2zM55.8,37.8H57.6V39.6H55.8zM57.6,37.8H59.4V39.6H57.6zM61.2,37.8H63V39.6H61.2zM63,37.8H64.8V39.6H63zM72,37.8H73.8V39.6H72zM7.2,39.6H9V41.4H7.2zM9,39.6H10.8V41.4H9zM12.6,39.6H14.4V41.4H12.6zM16.2,39.6H18V41.4H16.2zM18,39.6H19.8V41.4H18zM19.8,39.6H21.6V41.4H19.8zM28.8,39.6H30.6V41.4H28.8zM30.6,39.6H32.4V41.4H30.6zM34.2,39.6H36V41.4H34.2zM39.6,39.6H41.4V41.4H39.6zM46.8,39.6H48.6V41.4H46.8zM48.6,39.6H50.4V41.4H48.6zM55.8,39.6H57.6V41.4H55.8zM59.4,39.6H61.2V41.4H59.4zM61.2,39.6H63V41.4H61.2zM64.8,39.6H66.6V41.4H64.8zM72,39.6H73.8V41.4H72zM10.8,41.4H12.6V43.2H10.8zM14.4,41.4H16.2V43.2H14.4zM25.2,41.4H27V43.2H25.2zM30.6,41.4H32.4V43.2H30.6zM32.4,41.4H34.2V43.2H32.4zM34.2,41.4H36V43.2H34.2zM36,41.4H37.8V43.2H36zM37.8,41.4H39.6V43.2H37.8zM39.6,41.4H41.4V43.2H39.6zM41.4,41.4H43.2V43.2H41.4zM55.8,41.4H57.6V43.2H55.8zM57.6,41.4H59.4V43.2H57.6zM59.4,41.4H61.2V43.2H59.4zM61.2,41.4H63V43.2H61.2zM63,41.4H64.8V43.2H63zM64.8,41.4H66.6V43.2H64.8zM66.6,41.4H68.4V43.2H66.6zM70.2,41.4H72V43.2H70.2zM72,41.4H73.8V43.2H72zM7.2,43.2H9V45H7.2zM12.6,43.2H14.4V45H12.6zM14.4,43.2H16.2V45H14.4zM18,43.2H19.8V45H18zM19.8,43.2H21.6V45H19.8zM21.6,43.2H23.4V45H21.6zM23.4,43.2H25.2V45H23.4zM27,43.2H28.8V45H27zM28.8,43.2H30.6V45H28.8zM30.6,43.2H32.4V45H30.6zM36,43.2H37.8V45H36zM37.8,43.2H39.6V45H37.8zM41.4,43.2H43.2V45H41.4zM43.2,43.2H45V45H43.2zM45,43.2H46.8V45H45zM46.8,43.2H48.6V45H46.8zM48.6,43.2H50.4V45H48.6zM55.8,43.2H57.6V45H55.8zM57.6,43.2H59.4V45H57.6zM61.2,43.2H63V45H61.2zM66.6,43.2H68.4V45H66.6zM70.2,43.2H72V45H70.2zM9,45H10.8V46.8H9zM10.8,45H12.6V46.8H10.8zM12.6,45H14.4V46.8H12.6zM14.4,45H16.2V46.8H14.4zM16.2,45H18V46.8H16.2zM19.8,45H21.6V46.8H19.8zM21.6,45H23.4V46.8H21.6zM32.4,45H34.2V46.8H32.4zM34.2,45H36V46.8H34.2zM36,45H37.8V46.8H36zM43.2,45H45V46.8H43.2zM46.8,45H48.6V46.8H46.8zM48.6,45H50.4V46.8H48.6zM50.4,45H52.2V46.8H50.4zM55.8,45H57.6V46.8H55.8zM61.2,45H63V46.8H61.2zM63,45H64.8V46.8H63zM66.6,45H68.4V46.8H66.6zM70.2,45H72V46.8H70.2zM72,45H73.8V46.8H72zM7.2,46.8H9V48.6H7.2zM9,46.8H10.8V48.6H9zM10.8,46.8H12.6V48.6H10.8zM16.2,46.8H18V48.6H16.2zM18,46.8H19.8V48.6H18zM21.6,46.8H23.4V48.6H21.6zM25.2,46.8H27V48.6H25.2zM30.6,46.8H32.4V48.6H30.6zM34.2,46.8H36V48.6H34.2zM37.8,46.8H39.6V48.6H37.8zM41.4,46.8H43.2V48.6H41.4zM46.8,46.8H48.6V48.6H46.8zM48.6,46.8H50.4V48.6H48.6zM50.4,46.8H52.2V48.6H50.4zM52.2,46.8H54V48.6H52.2zM55.8,46.8H57.6V48.6H55.8zM57.6,46.8H59.4V48.6H57.6zM63,46.8H64.8V48.6H63zM64.8,46.8H66.6V48.6H64.8zM68.4,46.8H70.2V48.6H68.4zM72,46.8H73.8V48.6H72zM10.8,48.6H12.6V50.4H10.8zM12.6,48.6H14.4V50.4H12.6zM16.2,48.6H18V50.4H16.2zM19.8,48.6H21.6V50.4H19.8zM21.6,48.6H23.4V50.4H21.6zM23.4,48.6H25.2V50.4H23.4zM25.2,48.6H27V50.4H25.2zM28.8,48.6H30.6V50.4H28.8zM30.6,48.6H32.4V50.4H30.6zM32.4,48.6H34.2V50.4H32.4zM34.2,48.6H36V50.4H34.2zM36,48.6H37.8V50.4H36zM39.6,48.6H41.4V50.4H39.6zM43.2,48.6H45V50.4H43.2zM45,48.6H46.8V50.4H45zM46.8,48.6H48.6V50.4H46.8zM50.4,48.6H52.2V50.4H50.4zM54,48.6H55.8V50.4H54zM55.8,48.6H57.6V50.4H55.8zM61.2,48.6H63V50.4H61.2zM63,48.6H64.8V50.4H63zM66.6,48.6H68.4V50.4H66.6zM70.2,48.6H72V50.4H70.2zM12.6,50.4H14.4V52.2H12.6zM18,50.4H19.8V52.2H18zM23.4,50.4H25.2V52.2H23.4zM27,50.4H28.8V52.2H27zM28.8,50.4H30.6V52.2H28.8zM32.4,50.4H34.2V52.2H32.4zM34.2,50.4H36V52.2H34.2zM39.6,50.4H41.4V52.2H39.6zM43.2,50.4H45V52.2H43.2zM45,50.4H46.8V52.2H45zM48.6,50.4H50.4V52.2H48.6zM50.4,50.4H52.2V52.2H50.4zM54,50.4H55.8V52.2H54zM57.6,50.4H59.4V52.2H57.6zM61.2,50.4H63V52.2H61.2zM66.6,50.4H68.4V52.2H66.6zM70.2,50.4H72V52.2H70.2zM72,50.4H73.8V52.2H72zM10.8,52.2H12.6V54H10.8zM16.2,52.2H18V54H16.2zM19.8,52.2H21.6V54H19.8zM30.6,52.2H32.4V54H30.6zM34.2,52.2H36V54H34.2zM37.8,52.2H39.6V54H37.8zM39.6,52.2H41.4V54H39.6zM41.4,52.2H43.2V54H41.4zM43.2,52.2H45V54H43.2zM46.8,52.2H48.6V54H46.8zM50.4,52.2H52.2V54H50.4zM55.8,52.2H57.6V54H55.8zM57.6,52.2H59.4V54H57.6zM59.4,52.2H61.2V54H59.4zM61.2,52.2H63V54H61.2zM63,52.2H64.8V54H63zM66.6,52.2H68.4V54H66.6zM72,52.2H73.8V54H72zM7.2,54H9V55.8H7.2zM9,54H10.8V55.8H9zM10.8,54H12.6V55.8H10.8zM12.6,54H14.4V55.8H12.6zM16.2,54H18V55.8H16.2zM18,54H19.8V55.8H18zM21.6,54H23.4V55.8H21.6zM23.4,54H25.2V55.8H23.4zM25.2,54H27V55.8H25.2zM32.4,54H34.2V55.8H32.4zM41.4,54H43.2V55.8H41.4zM43.2,54H45V55.8H43.2zM45,54H46.8V55.8H45zM46.8,54H48.6V55.8H46.8zM50.4,54H52.2V55.8H50.4zM52.2,54H54V55.8H52.2zM54,54H55.8V55.8H54zM55.8,54H57.6V55.8H55.8zM59.4,54H61.2V55.8H59.4zM61.2,54H63V55.8H61.2zM63,54H64.8V55.8H63zM64.8,54H66.6V55.8H64.8zM70.2,54H72V55.8H70.2zM72,54H73.8V55.8H72zM10.8,55.8H12.6V57.6H10.8zM12.6,55.8H14.4V57.6H12.6zM16.2,55.8H18V57.6H16.2zM21.6,55.8H23.4V57.6H21.6zM23.4,55.8H25.2V57.6H23.4zM27,55.8H28.8V57.6H27zM30.6,55.8H32.4V57.6H30.6zM37.8,55.8H39.6V57.6H37.8zM43.2,55.8H45V57.6H43.2zM48.6,55.8H50.4V57.6H48.6zM50.4,55.8H52.2V57.6H50.4zM55.8,55.8H57.6V57.6H55.8zM59.4,55.8H61.2V57.6H59.4zM61.2,55.8H63V57.6H61.2zM66.6,55.8H68.4V57.6H66.6zM7.2,57.6H9V59.4H7.2zM9,57.6H10.8V59.4H9zM12.6,57.6H14.4V59.4H12.6zM14.4,57.6H16.2V59.4H14.4zM16.2,57.6H18V59.4H16.2zM18,57.6H19.8V59.4H18zM19.8,57.6H21.6V59.4H19.8zM25.2,57.6H27V59.4H25.2zM27,57.6H28.8V59.4H27zM28.8,57.6H30.6V59.4H28.8zM30.6,57.6H32.4V59.4H30.6zM34.2,57.6H36V59.4H34.2zM36,57.6H37.8V59.4H36zM39.6,57.6H41.4V59.4H39.6zM41.4,57.6H43.2V59.4H41.4zM43.2,57.6H45V59.4H43.2zM45,57.6H46.8V59.4H45zM50.4,57.6H52.2V59.4H50.4zM55.8,57.6H57.6V59.4H55.8zM57.6,57.6H59.4V59.4H57.6zM59.4,57.6H61.2V59.4H59.4zM61.2,57.6H63V59.4H61.2zM63,57.6H64.8V59.4H63zM64.8,57.6H66.6V59.4H64.8zM21.6,59.4H23.4V61.2H21.6zM25.2,59.4H27V61.2H25.2zM27,59.4H28.8V61.2H27zM28.8,59.4H30.6V61.2H28.8zM34.2,59.4H36V61.2H34.2zM37.8,59.4H39.6V61.2H37.8zM39.6,59.4H41.4V61.2H39.6zM41.4,59.4H43.2V61.2H41.4zM45,59.4H46.8V61.2H45zM46.8,59.4H48.6V61.2H46.8zM48.6,59.4H50.4V61.2H48.6zM50.4,59.4H52.2V61.2H50.4zM57.6,59.4H59.4V61.2H57.6zM64.8,59.4H66.6V61.2H64.8zM66.6,59.4H68.4V61.2H66.6zM70.2,59.4H72V61.2H70.2zM72,59.4H73.8V61.2H72zM7.2,61.2H9V63H7.2zM9,61.2H10.8V63H9zM10.8,61.2H12.6V63H10.8zM12.6,61.2H14.4V63H12.6zM14.4,61.2H16.2V63H14.4zM16.2,61.2H18V63H16.2zM18,61.2H19.8V63H18zM21.6,61.2H23.4V63H21.6zM27,61.2H28.8V63H27zM37.8,61.2H39.6V63H37.8zM41.4,61.2H43.2V63H41.4zM43.2,61.2H45V63H43.2zM46.8,61.2H48.6V63H46.8zM48.6,61.2H50.4V63H48.6zM50.4,61.2H52.2V63H50.4zM52.2,61.2H54V63H52.2zM54,61.2H55.8V63H54zM57.6,61.2H59.4V63H57.6zM61.2,61.2H63V63H61.2zM64.8,61.2H66.6V63H64.8zM66.6,61.2H68.4V63H66.6zM68.4,61.2H70.2V63H68.4zM72,61.2H73.8V63H72zM7.2,63H9V64.8H7.2zM18,63H19.8V64.8H18zM21.6,63H23.4V64.8H21.6zM27,63H28.8V64.8H27zM34.2,63H36V64.8H34.2zM37.8,63H39.6V64.8H37.8zM45,63H46.8V64.8H45zM54,63H55.8V64.8H54zM55.8,63H57.6V64.8H55.8zM57.6,63H59.4V64.8H57.6zM64.8,63H66.6V64.8H64.8zM66.6,63H68.4V64.8H66.6zM70.2,63H72V64.8H70.2zM7.2,64.8H9V66.6H7.2zM10.8,64.8H12.6V66.6H10.8zM12.6,64.8H14.4V66.6H12.6zM14.4,64.8H16.2V66.6H14.4zM18,64.8H19.8V66.6H18zM25.2,64.8H27V66.6H25.2zM27,64.8H28.8V66.6H27zM34.2,64.8H36V66.6H34.2zM36,64.8H37.8V66.6H36zM39.6,64.8H41.4V66.6H39.6zM41.4,64.8H43.2V66.6H41.4zM43.2,64.8H45V66.6H43.2zM50.4,64.8H52.2V66.6H50.4zM55.8,64.8H57.6V66.6H55.8zM57.6,64.8H59.4V66.6H57.6zM59.4,64.8H61.2V66.6H59.4zM61.2,64.8H63V66.6H61.2zM63,64.8H64.8V66.6H63zM64.8,64.8H66.6V66.6H64.8zM70.2,64.8H72V66.6H70.2zM72,64.8H73.8V66.6H72zM7.2,66.6H9V68.4H7.2zM10.8,66.6H12.6V68.4H10.8zM12.6,66.6H14.4V68.4H12.6zM14.4,66.6H16.2V68.4H14.4zM18,66.6H19.8V68.4H18zM23.4,66.6H25.2V68.4H23.4zM27,66.6H28.8V68.4H27zM28.8,66.6H30.6V68.4H28.8zM30.6,66.6H32.4V68.4H30.6zM32.4,66.6H34.2V68.4H32.4zM36,66.6H37.8V68.4H36zM39.6,66.6H41.4V68.4H39.6zM41.4,66.6H43.2V68.4H41.4zM64.8,66.6H66.6V68.4H64.8zM72,66.6H73.8V68.4H72zM7.2,68.4H9V70.2H7.2zM10.8,68.4H12.6V70.2H10.8zM12.6,68.4H14.4V70.2H12.6zM14.4,68.4H16.2V70.2H14.4zM18,68.4H19.8V70.2H18zM21.6,68.4H23.4V70.2H21.6zM23.4,68.4H25.2V70.2H23.4zM27,68.4H28.8V70.2H27zM28.8,68.4H30.6V70.2H28.8zM30.6,68.4H32.4V70.2H30.6zM39.6,68.4H41.4V70.2H39.6zM41.4,68.4H43.2V70.2H41.4zM48.6,68.4H50.4V70.2H48.6zM54,68.4H55.8V70.2H54zM57.6,68.4H59.4V70.2H57.6zM64.8,68.4H66.6V70.2H64.8zM68.4,68.4H70.2V70.2H68.4zM70.2,68.4H72V70.2H70.2zM72,68.4H73.8V70.2H72zM7.2,70.2H9V72H7.2zM18,70.2H19.8V72H18zM25.2,70.2H27V72H25.2zM27,70.2H28.8V72H27zM28.8,70.2H30.6V72H28.8zM32.4,70.2H34.2V72H32.4zM37.8,70.2H39.6V72H37.8zM39.6,70.2H41.4V72H39.6zM41.4,70.2H43.2V72H41.4zM46.8,70.2H48.6V72H46.8zM48.6,70.2H50.4V72H48.6zM50.4,70.2H52.2V72H50.4zM54,70.2H55.8V72H54zM57.6,70.2H59.4V72H57.6zM61.2,70.2H63V72H61.2zM7.2,72H9V73.8H7.2zM9,72H10.8V73.8H9zM10.8,72H12.6V73.8H10.8zM12.6,72H14.4V73.8H12.6zM14.4,72H16.2V73.8H14.4zM16.2,72H18V73.8H16.2zM18,72H19.8V73.8H18zM23.4,72H25.2V73.8H23.4zM25.2,72H27V73.8H25.2zM27,72H28.8V73.8H27zM30.6,72H32.4V73.8H30.6zM41.4,72H43.2V73.8H41.4zM50.4,72H52.2V73.8H50.4zM57.6,72H59.4V73.8H57.6zM61.2,72H63V73.8H61.2zM66.6,72H68.4V73.8H66.6zM72,72H73.8V73.8H72z" id="qr-path" fill="#000000" fill-opacity="1" fill-rule="nonzero" stroke="none"/></svg>